<svg width="512" height="512" viewBox="0 0 512 512" fill="none" xmlns="http://www.w3.org/2000/svg">
<path d="M96 179.81V164.571C96 164.571 96 118.857 141.714 118.857C184.823 118.857 335.208 118.857 370.286 118.857C416 118.857 416 164.571 416 164.571V179.81H96Z" fill="#AE554A"/>
<path d="M248.381 195.048H96V286.476H248.381V195.048Z" fill="#AE554A" fill-opacity="0.6"/>
<path d="M416 195.048H263.619V286.476H416V195.048Z" fill="#AE554A" fill-opacity="0.6"/>
<path d="M96 301.714V347.429C96 347.429 96 393.143 141.714 393.143C184.823 393.143 248.381 393.143 248.381 393.143V301.714H96Z" fill="#AE554A" fill-opacity="0.6"/>
<path d="M263.619 393.143V301.714H416V347.429C416 347.429 416 393.143 370.286 393.143C327.192 393.143 263.619 393.143 263.619 393.143Z" fill="#AE554A" fill-opacity="0.6"/>
</svg>
